<svg width="40" height="40" viewBox="0 0 40 40" fill="none" xmlns="http://www.w3.org/2000/svg">
  <path d="M30 10H10C8.89543 10 8 10.8954 8 12V32C8 33.1046 8.89543 34 10 34H30C31.1046 34 32 33.1046 32 32V12C32 10.8954 31.1046 10 30 10Z" stroke="#FF3366" stroke-width="2" stroke-linecap="round" stroke-linejoin="round"/>
  <path d="M26 10V8C26 6.93913 25.5786 5.92172 24.8284 5.17157C24.0783 4.42143 23.0609 4 22 4H18C16.9391 4 15.9217 4.42143 15.1716 5.17157C14.4214 5.92172 14 6.93913 14 8V10" stroke="#FF3366" stroke-width="2" stroke-linecap="round" stroke-linejoin="round"/>
</svg> 